HIERARCHY
ROOT Hips
{
  OFFSET 279.157 85.6768 304.565
  CHANNELS 6 Xposition Yposition Zposition Zrotation Xrotation Yrotation
  JOINT LeftUpLeg
  {
    OFFSET 8.64259 1.95398 -2.38835
    CHANNELS 3 Zrotation Xrotation Yrotation
    JOINT LeftLeg
    {
      OFFSET 43.7702 0 0
      CHANNELS 3 Zrotation Xrotation Yrotation
      JOINT LeftFoot
      {
        OFFSET 40.6238 0 0
        CHANNELS 3 Zrotation Xrotation Yrotation
        JOINT LeftToeBase
        {
          OFFSET 12.7242 0 0
          CHANNELS 3 Zrotation Xrotation Yrotation
          End Site
          {
            OFFSET 0 0 0
          }
        }
      }
    }
  }
  JOINT RightUpLeg
  {
    OFFSET -8.2249 1.95398 -2.59336
    CHANNELS 3 Zrotation Xrotation Yrotation
    JOINT RightLeg
    {
      OFFSET 43.5653 0 0
      CHANNELS 3 Zrotation Xrotation Yrotation
      JOINT RightFoot
      {
        OFFSET 40.6238 0 0
        CHANNELS 3 Zrotation Xrotation Yrotation
        JOINT RightToeBase
        {
          OFFSET 12.7242 0 0
          CHANNELS 3 Zrotation Xrotation Yrotation
          End Site
          {
            OFFSET 0 0 0
          }
        }
      }
    }
  }
  JOINT Spine
  {
    OFFSET 0.165834 0.87714 6.61349
    CHANNELS 3 Zrotation Xrotation Yrotation
    JOINT Spine1
    {
      OFFSET 7.38963 1.71661e-005 0
      CHANNELS 3 Zrotation Xrotation Yrotation
      JOINT Spine2
      {
        OFFSET 11.9445 1.14441e-005 0
        CHANNELS 3 Zrotation Xrotation Yrotation
        JOINT Spine3
        {
          OFFSET 14.7254 4.19617e-005 0
          CHANNELS 3 Zrotation Xrotation Yrotation
          JOINT Spine4
          {
            OFFSET 10.9679 0 0
            CHANNELS 3 Zrotation Xrotation Yrotation
            JOINT RightShoulder
            {
              OFFSET 2.46616 -1.6653 3.69651
              CHANNELS 3 Zrotation Xrotation Yrotation
              JOINT RightArm
              {
                OFFSET 13.0012 0 0
                CHANNELS 3 Zrotation Xrotation Yrotation
                JOINT RightForeArm
                {
                  OFFSET 28.7848 1.52588e-005 0
                  CHANNELS 3 Zrotation Xrotation Yrotation
                  JOINT RightHand
                  {
                    OFFSET 26.5688 1.52588e-005 0
                    CHANNELS 3 Zrotation Xrotation Yrotation
                    End Site
                    {
                      OFFSET 0 0 0
                    }
                  }
                }
              }
            }
            JOINT LeftShoulder
            {
              OFFSET 2.38034 -1.29275 -3.7523
              CHANNELS 3 Zrotation Xrotation Yrotation
              JOINT LeftArm
              {
                OFFSET 16.3182 6.10351e-005 0
                CHANNELS 3 Zrotation Xrotation Yrotation
                JOINT LeftForeArm
                {
                  OFFSET 27.0901 0 0
                  CHANNELS 3 Zrotation Xrotation Yrotation
                  JOINT LeftHand
                  {
                    OFFSET 24.5451 1.52588e-005 0
                    CHANNELS 3 Zrotation Xrotation Yrotation
                    End Site
                    {
                      OFFSET 0 0 0
                    }
                  }
                }
              }
            }
            JOINT Neck
            {
              OFFSET 5.0226 -0.0266342 0
              CHANNELS 3 Zrotation Xrotation Yrotation
              JOINT Head
              {
                OFFSET 6.69364 2.86102e-005 0
                CHANNELS 3 Zrotation Xrotation Yrotation
                End Site
                {
                  OFFSET 0 0 0
                }
              }
            }
          }
        }
      }
    }
  }
}
MOTION
Frames:	13
Frame Time:	0.0416667
-10.7353 97.4572 147.025 160.296 -77.3753 161.342 -169.001 -9.98462 94.8916 -36.3783 20.1085 0.461595 77.174 12.6793 1.45308 27.0453 -3.69599 10.6673 175.781 10.4767 93.7327 -18.4106 -8.06994 1.74594 58.7067 1.48871 0.863515 15.7723 2.85812 6.64988 -0.664087 8.12729 -90.6063 10.6097 -1.60145 -1.06205 -1.06063 -1.64665 -0.990533 -23.5973 -1.20827 -1.49424 -3.58462 -1.20826 -1.49424 89.5288 -33.6576 -106.317 39.5472 -2.00333 6.02814 0.72971 -19.4732 -16.24 -22.3014 -0.0817255 -10.1708 -90.1926 -50.3113 78.5076 -17.0889 10.7731 -22.3388 1.31965 7.99724 -9.07849 -0.797896 -0.149494 -8.6459 -19.4541 0.793219 -4.59802 -8.40258 0.505971 2.95581 
-9.92758 96.7803 137.823 177.022 -78.3737 174.293 -171.387 -8.42668 88.0903 -32.2516 12.5178 -2.08739 83.6984 15.7604 -1.10165 21.5588 -7.82384 11.8753 175.257 13.1308 90.4332 -12.6273 -7.04492 1.03279 56.2036 1.88759 0.456583 23.0291 1.40606 3.144 -0.303616 8.35287 -90.1146 10.1677 -0.657198 -0.171851 -1.50307 -0.664118 -0.142774 -24.0392 -0.57516 -0.361427 -4.02656 -0.57516 -0.361434 88.9371 -34.7052 -107.043 37.1971 -3.82038 2.57058 -0.0249477 -22.3246 -18.476 -23.5822 -0.130648 -10.5624 -90.5284 -50.6181 78.0762 -14.875 10.4547 -21.9241 0.910681 9.64238 -8.3032 -0.182188 -0.152125 -7.59181 -17.4581 0.593546 -5.27391 -8.2965 0.397256 2.52834 
-8.55217 97.6357 130.099 -168.322 -76.8429 -171.284 -172.98 -5.35887 85.4837 -31.0059 9.30374 -2.51403 81.4563 14.2099 0.0845641 16.5691 -9.4244 7.13623 174.388 14.3996 89.1341 -16.467 -1.87728 1.17994 58.5247 0.149763 0.521633 20.4498 1.78021 5.3062 0.0827539 8.69584 -90.0805 9.48234 0.128757 -0.170469 -2.18859 0.121133 -0.175973 -24.7238 0.174034 -0.123893 -4.71116 0.174036 -0.123892 88.1902 -33.692 -108.811 35.8165 -5.13065 -0.289143 1.37635 -21.8855 -16.4312 -22.9108 -0.0262014 -11.1948 -90.3613 -50.9808 78.4022 -15.2494 10.4358 -17.0087 1.14921 9.09597 -9.58515 -0.531239 -0.135574 -7.20702 -18.5782 0.56868 -3.10595 -7.37339 0.425791 1.86303 
-7.287 99.3092 124.049 -156.853 -75.7138 -158.524 -174.691 -3.6157 84.4058 -26.2669 5.10627 -1.56787 76.2519 10.0096 -0.747242 15.0625 -10.6301 7.69068 175.324 16.67 88.622 -36.019 -8.66512 -1.13322 60.8325 -0.485778 -0.521984 19.5673 2.01356 5.43881 0.496267 8.7401 -90.2947 9.39547 0.857128 -0.646986 -2.27537 0.827822 -0.684087 -24.8122 1.01194 -0.359465 -4.79956 1.01194 -0.359463 87.8175 -31.2703 -110.508 36.4164 -6.08004 -0.787921 1.72387 -22.1543 -15.218 -23.6267 -0.300925 -9.48734 -89.4786 -52.3603 79.983 -17.3921 11.919 -8.58563 0.491737 6.37578 -11.8422 0.515319 -0.18238 -8.35992 -21.7365 0.569935 0.964047 -6.27108 0.63309 0.00870782 
-6.85254 99.8876 119.174 -146.701 -74.9315 -148.694 -175.465 -1.38982 83.6099 -22.8768 2.78121 -1.6626 72.6736 7.34421 -0.683401 13.6145 -11.2419 6.87329 175.869 14.3667 86.616 -54.2945 -11.3289 -3.5929 61.6576 -1.12383 -0.831296 19.5948 1.95142 5.68205 0.885267 8.62438 -90.2383 9.62963 1.65731 -0.601135 -2.04044 1.62925 -0.673511 -24.584 1.76133 -0.0751119 -4.5714 1.76134 -0.0751016 86.9055 -30.5168 -112.591 36.4487 -6.07933 0.974197 0.365345 -22.0141 -16.8869 -23.3003 -0.179432 -10.2193 -87.8577 -52.7807 82.4217 -21.2727 11.5381 0.789959 1.0524 6.81096 -15.0733 -0.023424 -0.172456 -8.36723 -23.6749 0.535927 3.0172 -4.77486 0.777809 -1.11158 
-7.07728 99.5789 114.853 -141.209 -74.4645 -144.797 -175.061 1.71172 83.1436 -22.4528 1.89328 -2.95028 70.0946 5.27278 -1.33168 12.1637 -11.3934 5.0836 175.332 6.18987 83.321 -61.4039 -15.2151 -5.721 61.3094 -1.21745 -1.01566 21.0121 1.29719 6.86521 1.28808 8.54278 -89.9338 9.79091 2.5976 -0.0753678 -1.87744 2.59176 -0.189706 -24.4324 2.50007 0.709302 -4.41973 2.50007 0.709292 87.2542 -30.6008 -111.882 37.1297 -5.85226 0.941571 0.580466 -23.9169 -17.0509 -24.4629 -0.227549 -10.3373 -87.4282 -53.009 83.0843 -23.5315 9.2705 5.75637 1.06736 6.92981 -11.8863 -1.52094 -0.122265 -8.63843 -23.9986 0.305391 2.02058 -4.89382 0.482175 -1.1076 
-7.8616 99.205 109.447 -139.221 -74.6725 -143.606 -174.788 5.51355 83.5538 -21.7875 2.33381 -3.50502 67.0915 3.51997 -1.6013 9.34207 -12.978 4.59072 174.196 -4.13136 82.6067 -55.3094 -22.4345 -7.43077 65.1053 -3.69383 -2.47893 21.6921 0.710287 9.1271 1.51813 8.52462 -89.7873 9.82439 3.12249 0.172189 -1.8428 3.12704 0.0344597 -24.4052 2.92626 1.10348 -4.39257 2.92625 1.10346 87.8278 -29.6061 -111.211 38.226 -6.98184 -0.755662 1.94789 -22.9924 -15.0354 -24.5287 -0.192863 -10.2001 -87.4035 -54.7699 83.4004 -24.4014 7.32114 9.13475 1.4707 4.57916 -11.5467 -1.33286 -0.112025 -6.45893 -24.4073 -0.00232755 1.33707 -4.88398 0.131763 -1.42532 
-8.9234 98.4531 102.025 -137.634 -76.3532 -140.749 -175.335 11.631 85.4711 -20.3213 3.53482 -2.53632 61.7631 0.353246 -1.84761 8.43257 -13.3583 4.16392 172.839 -10.8962 85.2381 -38.8246 -18.1292 -5.31289 68.8602 -5.99469 -3.69577 37.3288 -3.4033 8.25512 1.60233 8.48996 -89.8372 9.89386 3.2676 0.0606373 -1.77297 3.26709 -0.0833933 -24.3386 3.09814 1.04083 -4.32593 3.09814 1.04083 87.3551 -29.4466 -112.208 37.9349 -6.86511 -1.28658 0.752625 -22.3833 -17.5672 -24.5278 -0.207904 -9.92015 -87.2464 -54.6584 83.6081 -25.2856 5.9415 9.14675 2.50782 4.5755 -13.4292 -3.1913 -0.0347974 -8.89223 -23.4687 -0.1477 0.772445 -4.72436 -0.0584349 -1.76846 
-9.77081 97.7258 93.1906 -148.049 -78.6013 -148.194 -176.444 15.3394 88.3633 -15.1134 7.32989 -1.02106 59.3864 -0.177986 -0.935624 12.7914 -11.1828 5.50263 171.945 -12.1276 88.368 -29.3711 -15.2657 -1.12967 76.5045 -10.0977 -2.36729 37.4971 -3.16031 4.96853 1.4106 8.68279 -90.2467 9.5223 2.70134 -0.698436 -2.14605 2.66799 -0.816733 -24.7042 2.78628 0.146349 -4.69154 2.78629 0.146357 86.7602 -29.0078 -113.589 35.8244 -5.99958 -1.95493 -0.509534 -23.264 -19.1824 -26.2512 -0.0979797 -10.4897 -87.3869 -58.191 83.9396 -19.5083 8.87572 3.71036 1.62838 4.80485 -14.4983 -1.9848 -0.104176 -9.90799 -21.7322 -0.440256 2.54638 -4.79949 -0.255307 -2.7491 
-10.8172 98.3012 85.87 175.736 -80.635 175.915 -176.925 13.9879 87.7718 -8.22014 7.00979 -1.29712 63.1355 3.9144 -0.0073671 16.7341 -10.1646 9.27798 172.143 -9.18293 90.9267 -26.6266 -9.22365 1.87634 77.9941 -10.4974 -2.77287 31.2514 -1.71555 8.44807 0.823931 8.85105 -90.3876 9.17718 1.46977 -0.872925 -2.49327 1.42993 -0.936782 -25.0344 1.66415 -0.39075 -5.0218 1.66415 -0.390762 87.071 -29.6772 -112.661 34.9189 -5.16922 -2.11427 0.257438 -23.3453 -17.3913 -26.0352 -0.120326 -10.4284 -88.3942 -56.1775 82.2272 -17.9366 9.71119 -3.16936 1.64888 6.80856 -13.3 -2.51122 -0.0855636 -8.4634 -22.9006 -0.821917 0.49651 -5.00701 -0.767433 -1.6068 
-11.8832 99.8847 79.7311 167.137 -80.6872 165.671 -175.342 16.0637 87.4729 -19.9075 -2.43119 -1.64232 63.9294 3.39969 -1.48795 15.3376 -9.85773 6.25544 173.158 -7.11132 91.2829 -22.2181 -6.34062 1.28656 75.0543 -7.98203 -1.13131 26.8895 -0.431142 7.38995 0.58182 8.88593 -90.2504 9.10506 1.04854 -0.570407 -2.56559 1.02243 -0.616014 -25.104 1.1715 -0.228869 -5.09131 1.17149 -0.228874 87.5445 -29.6565 -111.744 36.3419 -5.03963 0.414756 0.885707 -23.0865 -16.6248 -24.8534 -0.176709 -10.2716 -89.0268 -54.2539 80.9954 -14.7686 12.2043 -6.41176 0.986824 6.48065 -15.4922 -2.85902 -0.0666803 -9.8615 -22.9218 -0.697642 -0.798838 -5.79645 -0.743521 -0.567925 
-12.4461 100.517 74.9383 169.517 -82.4637 166.769 -173.98 16.094 88.49 -36.1214 5.1344 -0.826622 66.4067 4.82085 -0.337312 17.4121 -9.02122 7.56194 173.692 -3.21395 90.9202 -20.0517 -6.37151 0.714175 72.8727 -5.99692 -0.235135 25.413 -0.0487153 7.54304 0.33298 8.67 -90.0643 9.53406 0.634932 -0.175948 -2.13675 0.626576 -0.203727 -24.6731 0.658456 0.0230231 -4.66049 0.658459 0.023016 88.0888 -30.3351 -110.38 37.8338 -5.4716 2.53362 1.4163 -22.6591 -16.0836 -23.8759 -0.105017 -10.7176 -88.6361 -52.4427 81.2277 -13.6175 11.1308 -7.62507 1.62334 4.4056 -17.2812 0.370256 -0.218784 -9.70219 -22.4048 0.257477 0.0906265 -6.78862 0.255267 0.319362 
-12.3225 100.831 71.0282 177.21 -84.0935 175.003 -173.029 11.2538 90.6043 -46.0075 9.59796 0.715889 68.0611 5.69772 -0.381519 16.6519 -10.0404 8.81826 173.88 0.0704997 91.3079 -18.3239 -7.87669 1.14757 70.4013 -4.78735 0.40976 25.5497 0.182819 5.85929 0.104593 8.36869 -90.1604 10.1368 0.135349 -0.329258 -1.53423 0.120721 -0.334895 -24.0692 0.228043 -0.273357 -4.05654 0.228042 -0.273355 88.4259 -30.3856 -109.7 39.3483 -4.54966 4.79465 2.06092 -21.0061 -15.4301 -23.698 -0.151703 -9.95167 -88.1836 -52.4996 81.898 -13.2416 8.90674 -8.21899 2.48793 3.14886 -17.6902 0.472384 -0.245789 -10.5808 -23.9994 1.16996 2.40228 -7.08313 1.34204 0.639161 
